<?xml version="1.0" encoding="utf-8"?><svg xmlns="http://www.w3.org/2000/svg" viewBox="0 0 44.9 44.9"><defs><style>.cls-1{fill:#0f0708;}</style></defs><title>Asset 1</title><g id="Layer_2" data-name="Layer 2"><g id="Layer_1-2" data-name="Layer 1"><path class="cls-1" d="M12.66,12.58,9.15,14.34V28.26c0,3.34,2.29,4.66,5.63,4.66h.75v-3.3H15c-1.44,0-2.38-.69-2.38-2.6V22.07h2.87V18.78H12.66Z"/><path class="cls-1" d="M24.39,5.56c-4.75.41-7,3-7,7V32.92h3.52V22H24V18.69h-3.1V12.9c0-2.44,1.12-3.51,3.46-3.72Z"/><path class="cls-1" d="M22.45,0A22.45,22.45,0,1,0,44.9,22.45,22.47,22.47,0,0,0,22.45,0m0,41.88a19.44,19.44,0,1,1,13.76-5.72,5.66,5.66,0,0,0-1.09-7.56,5.29,5.29,0,0,0,2.37-4.48c0-2.94-1.87-5.91-6.59-6h-.11a6,6,0,0,0-6.29,6.15c0,4.39,3.46,5,5.59,5.7,1.44.46,3.48,1.11,3.48,3a2.87,2.87,0,0,1-3,2.88,4.19,4.19,0,0,1-3.63-2.55l-3,1.47.88,1.3A6.59,6.59,0,0,0,30.35,39a8,8,0,0,0,3.44-.76,19.33,19.33,0,0,1-11.34,3.68m8.49-15a2.65,2.65,0,0,1-3-2.74c0-1.7,1.22-2.67,3-2.67a2.71,2.71,0,1,1,0,5.41"/></g></g></svg>